<?xml version="1.0" encoding="UTF-8"?>
<svg viewBox="0 0 43 43"
    fill="none"
    xmlns="http://www.w3.org/2000/svg"
    
    
  >
    <g clipPath="url(#ferka_logo_clip)">
      <path d="M21.27 42.54C33.0171 42.54 42.54 33.0171 42.54 21.27C42.54 9.5229 33.0171 0 21.27 0C9.5229 0 0 9.5229 0 21.27C0 33.0171 9.5229 42.54 21.27 42.54Z" fill="white"/>
      <path d="M24.1203 30.94C24.1203 30.94 24.1103 30.86 24.1003 30.83C24.1003 30.8 24.0903 30.76 24.0803 30.73C24.0503 30.64 23.9803 30.61 23.9303 30.62C23.8703 30.63 23.8203 30.69 23.8203 30.78C23.8303 30.94 23.8703 31.09 23.9103 31.24C23.9303 31.3 23.9403 31.37 23.9603 31.43C23.9703 31.49 24.0103 31.56 24.0903 31.57C24.1503 31.57 24.1803 31.54 24.2003 31.52C24.2603 31.43 24.2103 31.26 24.1603 31.1C24.1403 31.04 24.1203 30.97 24.1203 30.94Z" fill="#241629"/>
      <path d="M23.1897 30.9404V30.9304C23.1197 30.8704 23.0497 30.8904 23.0097 30.9304C22.9597 30.9804 22.9497 31.0804 22.9997 31.1504C22.9997 31.1904 23.0197 31.2404 23.0197 31.2804C23.0297 31.3504 23.0397 31.4204 23.0597 31.4904C23.0597 31.5504 23.0697 31.6104 23.1097 31.6504C23.1397 31.6904 23.1797 31.7004 23.2097 31.7004C23.2297 31.7004 23.2497 31.7004 23.2697 31.6804C23.3297 31.6404 23.3697 31.5604 23.3397 31.4804C23.3197 31.4204 23.3097 31.3604 23.2997 31.3004C23.2797 31.1804 23.2597 31.0504 23.1897 30.9404Z" fill="#241629"/>
      <path d="M22.1499 30.8797C22.1199 30.7697 22.0899 30.6597 22.0799 30.5497C22.0799 30.5497 22.0799 30.5097 22.0699 30.4797C22.0699 30.4297 22.0499 30.3597 22.0199 30.3097C21.9899 30.2497 21.9299 30.2297 21.8699 30.2497C21.8099 30.2697 21.7699 30.3497 21.7799 30.4197C21.7899 30.4897 21.8099 30.5597 21.8199 30.6297C21.8499 30.7897 21.8799 30.9497 21.9299 31.1097C21.9599 31.1797 22.0099 31.2097 22.0599 31.2097C22.0799 31.2097 22.0999 31.2097 22.1099 31.1997C22.1799 31.1597 22.2199 31.0597 22.1799 30.9697C22.1799 30.9397 22.1599 30.9097 22.1499 30.8697V30.8797Z" fill="#241629"/>
      <path d="M20.5203 31.5796C20.5203 31.5796 20.5203 31.5196 20.5203 31.4796C20.5203 31.3096 20.5203 31.1696 20.4503 31.0996C20.4303 31.0796 20.3903 31.0596 20.3603 31.0596H20.3403C20.2203 31.0996 20.2303 31.2196 20.2403 31.2896C20.2403 31.3096 20.2403 31.3296 20.2403 31.3396C20.2403 31.3996 20.2403 31.4596 20.2403 31.5196C20.2403 31.5996 20.2403 31.6796 20.2403 31.7496C20.2103 31.8196 20.2303 31.9096 20.2903 31.9796V31.9896C20.3303 32.0096 20.3603 32.0196 20.3803 32.0196C20.4003 32.0196 20.4203 32.0196 20.4303 32.0096C20.5103 31.9596 20.5103 31.8096 20.5003 31.6796C20.5003 31.6396 20.5003 31.5996 20.5003 31.5796V31.5596L20.5203 31.5796Z" fill="#241629"/>
      <path d="M19.8803 30.4397C19.8803 30.3797 19.8603 30.3197 19.8603 30.2597C19.8603 30.1997 19.8503 30.1397 19.8403 30.0697C19.8403 30.0297 19.8203 29.9797 19.7703 29.9397C19.7703 29.9397 19.6803 29.8997 19.6403 29.9397C19.5903 29.9697 19.5603 30.0397 19.5703 30.0997C19.5903 30.1897 19.6003 30.2897 19.6003 30.3797C19.6203 30.5497 19.6303 30.7297 19.7003 30.8897C19.7203 30.9397 19.7703 30.9697 19.8203 30.9697C19.8703 30.9697 19.9103 30.9397 19.9303 30.8997C19.9603 30.8497 19.9603 30.7797 19.9303 30.7097C19.9103 30.6297 19.8903 30.5497 19.8803 30.4497V30.4397Z" fill="#241629"/>
      <path d="M18.3902 30.8303C18.3902 30.8303 18.2902 30.8303 18.2602 30.8603C18.2202 30.9003 18.2102 30.9603 18.2302 31.0203C18.2302 31.0803 18.2102 31.1503 18.2002 31.2103C18.1902 31.2903 18.1702 31.3803 18.1602 31.4703C18.1302 31.5203 18.1302 31.5903 18.1602 31.6403C18.1802 31.6903 18.2302 31.7303 18.2802 31.7403C18.4102 31.7403 18.4202 31.6003 18.4302 31.5303C18.4302 31.5203 18.4302 31.5003 18.4302 31.4903C18.4302 31.4203 18.4502 31.3603 18.4602 31.2903C18.4802 31.1803 18.5002 31.0703 18.4902 30.9603C18.4902 30.8803 18.4402 30.8303 18.3902 30.8203V30.8303Z" fill="#241629"/>
      <path d="M16.4398 31.1496C16.3798 31.1496 16.3298 31.1896 16.3098 31.2496C16.2198 31.5096 16.1498 31.7396 16.1098 31.9696C16.0898 31.9996 16.0698 32.0496 16.0798 32.0896C16.0798 32.1296 16.0898 32.1797 16.1198 32.2197C16.1198 32.2197 16.1998 32.2796 16.2298 32.2796C16.2398 32.2796 16.2498 32.2796 16.2598 32.2796C16.3398 32.2496 16.3698 32.1396 16.3798 32.0496C16.4198 31.8396 16.4598 31.6596 16.5098 31.4896C16.5098 31.4696 16.5098 31.4596 16.5298 31.4396C16.5498 31.3896 16.5698 31.3296 16.5598 31.2596C16.5498 31.1896 16.4998 31.1396 16.4298 31.1396L16.4398 31.1496Z" fill="#241629"/>
      <path d="M17.48 29.4104C17.48 29.4104 17.4 29.4104 17.37 29.4404C17.37 29.4404 17.32 29.5404 17.32 29.5904C17.32 29.6204 17.32 29.6404 17.31 29.6604C17.28 29.7904 17.26 29.9004 17.24 30.0204C17.24 30.0704 17.22 30.1204 17.21 30.1604C17.18 30.2204 17.18 30.2904 17.21 30.3604C17.23 30.4104 17.28 30.4304 17.33 30.4304C17.33 30.4304 17.33 30.4304 17.34 30.4304C17.4 30.4304 17.44 30.3804 17.46 30.3304C17.48 30.2504 17.5 30.1604 17.51 30.0804C17.51 30.0404 17.52 30.0004 17.53 29.9604C17.55 29.8504 17.57 29.7504 17.6 29.6404C17.61 29.5804 17.6 29.5204 17.58 29.4704C17.56 29.4304 17.53 29.4104 17.49 29.4004L17.48 29.4104Z" fill="#241629"/>
      <path d="M16.5999 28.4999C16.5899 28.4499 16.5699 28.3899 16.5599 28.3399C16.5599 28.3399 16.5099 28.2599 16.4799 28.2399C16.4499 28.2299 16.4099 28.2299 16.3799 28.2399C16.3099 28.2799 16.2999 28.3599 16.3099 28.4199C16.3099 28.4599 16.3299 28.4899 16.3299 28.5299C16.3699 28.7199 16.4099 28.9199 16.4899 29.0999V29.1199C16.5199 29.1599 16.5599 29.1699 16.5999 29.1699C16.6199 29.1699 16.6399 29.1699 16.6599 29.1499C16.7199 29.1099 16.7499 29.0099 16.7199 28.9399C16.6799 28.7999 16.6399 28.6399 16.5999 28.4999Z" fill="#241629"/>
      <path d="M15.3099 30.5296C15.1999 30.5496 15.1999 30.6496 15.1899 30.6996C15.1899 30.7196 15.1899 30.7296 15.1899 30.7396C15.1899 30.7396 15.1799 30.7996 15.1699 30.8296C15.1499 30.9096 15.1399 30.9896 15.1199 31.0796C15.0899 31.1496 15.0999 31.2396 15.1599 31.2896C15.1599 31.2896 15.2299 31.3296 15.2499 31.3296C15.2699 31.3296 15.2799 31.3296 15.2899 31.3296C15.3799 31.2996 15.3999 31.1596 15.4099 31.1196C15.4099 31.0796 15.4199 31.0396 15.4299 30.9996C15.4499 30.8896 15.4799 30.7796 15.4599 30.6596C15.4399 30.5696 15.3899 30.5196 15.3199 30.5296H15.3099Z" fill="#241629"/>
      <path d="M13.8705 29.9102C13.8205 29.9102 13.7505 29.9402 13.7305 30.0302L13.7105 30.0802C13.6405 30.2402 13.5705 30.4102 13.5105 30.5902C13.4705 30.6602 13.4705 30.7502 13.5105 30.8302C13.5105 30.8302 13.5705 30.8902 13.6105 30.8902C13.6205 30.8902 13.6305 30.8902 13.6405 30.8902C13.7005 30.8702 13.7405 30.8202 13.7505 30.7602C13.8105 30.5702 13.8805 30.3802 13.9405 30.2202C13.9405 30.2202 13.9705 30.1202 13.9705 30.0602C13.9705 29.9702 13.9005 29.9202 13.8505 29.9202L13.8705 29.9102Z" fill="#241629"/>
      <path d="M13.6604 28.8998C13.6604 28.8998 13.5804 28.8298 13.5204 28.8398C13.4604 28.8398 13.4204 28.8998 13.4104 28.9598C13.3704 29.0198 13.3204 29.0998 13.2704 29.1798C13.2704 29.1798 13.2404 29.2398 13.2204 29.2798C13.1704 29.3798 13.0904 29.5098 13.1904 29.6198C13.1904 29.6198 13.2504 29.6598 13.2804 29.6598C13.2904 29.6598 13.3004 29.6598 13.3104 29.6598C13.3904 29.6398 13.4304 29.5398 13.4404 29.5098C13.5104 29.3698 13.5704 29.2498 13.6304 29.1498C13.6804 29.0898 13.7004 28.9798 13.6604 28.9098V28.8998Z" fill="#241629"/>
      <path d="M11.8801 28.8301C11.8201 28.8301 11.7601 28.8801 11.7501 28.9701C11.6501 29.1301 11.5701 29.2901 11.4901 29.4501C11.4701 29.4801 11.4601 29.5201 11.4401 29.5501C11.3901 29.5801 11.3701 29.6401 11.3701 29.6901C11.3701 29.6901 11.3701 29.7901 11.4101 29.8301C11.4101 29.8301 11.4801 29.8801 11.5101 29.8801C11.5101 29.8801 11.5201 29.8801 11.5301 29.8801C11.6101 29.8601 11.6601 29.7701 11.6901 29.6901C11.6901 29.6701 11.7101 29.6501 11.7201 29.6401C11.7901 29.4901 11.8601 29.3501 11.9301 29.2101C11.9301 29.2101 11.9301 29.1901 11.9401 29.1801C11.9801 29.1201 12.0201 29.0501 12.0101 28.9601C11.9901 28.8601 11.9201 28.8301 11.8701 28.8301H11.8801Z" fill="#241629"/>
      <path d="M10.9705 28.8403C10.9705 28.8403 10.9105 28.9203 10.9105 28.9703C10.8805 29.0403 10.8505 29.1203 10.8205 29.2003C10.7605 29.2503 10.7405 29.3503 10.7505 29.4403C10.7505 29.5303 10.8005 29.5903 10.8705 29.6103C10.8705 29.6103 10.8705 29.6103 10.8805 29.6103C11.0005 29.6103 11.0305 29.4803 11.0505 29.4103C11.0505 29.3803 11.0605 29.3603 11.0705 29.3403C11.0705 29.3403 11.1005 29.2503 11.1105 29.2103C11.1405 29.1403 11.1705 29.0703 11.1705 28.9903C11.1705 28.9303 11.1405 28.8603 11.0905 28.8303C11.0505 28.8103 11.0005 28.8103 10.9605 28.8403H10.9705Z" fill="#241629"/>
      <path d="M11.0402 27.9698C11.0902 27.8898 11.0702 27.8098 11.0402 27.7598C11.0102 27.7098 10.9602 27.6898 10.9102 27.6998C10.8802 27.6998 10.8302 27.7298 10.8002 27.8198C10.5702 28.1098 10.4202 28.3498 10.3102 28.5898C10.2702 28.6398 10.2602 28.7098 10.2702 28.7698C10.2802 28.8198 10.3102 28.8598 10.3502 28.8798C10.3502 28.8798 10.3802 28.8898 10.4002 28.8898C10.4202 28.8898 10.4302 28.8898 10.4502 28.8798C10.5102 28.8498 10.5402 28.7898 10.5402 28.7598C10.6502 28.5198 10.8002 28.2998 10.9602 28.0698C10.9802 28.0398 11.0102 27.9998 11.0302 27.9598L11.0402 27.9698Z" fill="#241629"/>
      <path d="M9.71039 27.5597C9.66039 27.6497 9.60039 27.7197 9.54039 27.7997C9.49039 27.8597 9.44039 27.9197 9.40039 27.9797C9.36039 28.0297 9.34039 28.0897 9.36039 28.1597C9.37039 28.2197 9.41039 28.2597 9.46039 28.2797C9.46039 28.2797 9.48039 28.2797 9.49039 28.2797C9.54039 28.2797 9.59039 28.2397 9.61039 28.1897C9.64039 28.1397 9.68039 28.0997 9.71039 28.0497C9.78039 27.9597 9.86039 27.8597 9.91039 27.7497C9.96039 27.6697 9.92039 27.5797 9.87039 27.5297C9.83039 27.4997 9.76039 27.4897 9.70039 27.5597H9.71039Z" fill="#241629"/>
      <path d="M33.4805 16.7303C33.4805 16.7303 33.5505 16.7503 33.5805 16.7503C33.6305 16.7503 33.6805 16.7303 33.7105 16.6903C33.8505 16.5303 33.8305 16.0903 33.8005 15.6803C33.8005 15.6203 33.8005 15.5703 33.8005 15.5403C33.8005 14.6103 33.5205 13.6803 32.9705 12.7103C32.5205 11.8603 31.9605 11.0403 31.3305 10.2803C31.1605 10.0703 31.0005 9.89031 30.8205 9.74031C30.7605 9.66031 30.6505 9.57031 30.5405 9.57031C30.4905 9.57031 30.4105 9.59031 30.3705 9.72031C30.3305 9.92031 30.4905 10.0403 30.6005 10.1203L30.6405 10.1503C30.7705 10.2303 30.8805 10.3403 30.9905 10.4503L31.0105 10.4703C31.5505 11.0103 32.0005 11.6903 32.4305 12.6003C32.4705 12.6703 32.5005 12.7403 32.5405 12.8103C32.8205 13.3403 33.1105 13.8803 33.2205 14.4903C33.2805 14.7403 33.2905 15.0103 33.3105 15.2603C33.3105 15.3503 33.3205 15.4403 33.3305 15.5303V15.5503C33.3505 15.7903 33.3705 16.0303 33.3605 16.2703C33.3405 16.3803 33.2905 16.6003 33.5005 16.7103L33.4805 16.7303Z" fill="#241629"/>
      <path d="M24.1705 23.9405C23.9705 23.8305 23.7805 23.7405 23.5705 23.7405C23.5105 23.7405 23.4405 23.7305 23.3805 23.7305C23.0205 23.7305 22.7205 23.9305 22.5105 24.2705C22.1605 24.7305 22.1605 25.3805 22.5105 25.7705C22.6905 25.9205 22.9605 26.0205 23.2505 26.0305C23.2905 26.0305 23.3205 26.0305 23.3605 26.0305C23.9205 26.0105 24.3305 25.7605 24.5505 25.2905V25.2805C24.5905 25.1205 24.5905 24.9505 24.5905 24.7905C24.5905 24.7405 24.5905 24.6905 24.5905 24.6405C24.5905 24.3105 24.4105 24.0405 24.1605 23.9305L24.1705 23.9405Z" fill="#241629"/>
      <path d="M9.92986 22.75C9.98986 23.18 10.3899 23.49 10.8499 23.48C10.8499 23.48 10.8699 23.48 10.8799 23.48C10.9099 23.48 10.9499 23.48 10.9799 23.48C11.4899 23.47 11.9499 23.12 12.1099 22.63C12.1299 22.56 12.1499 22.48 12.1699 22.41C12.2199 22.26 12.2599 22.11 12.2499 21.94C12.2399 21.44 11.6899 21.25 11.2999 21.11C11.2599 21.1 11.2299 21.09 11.1999 21.07C11.1199 21.05 11.0499 21.04 10.9699 21.04C10.4599 21.05 10.0699 21.47 9.91986 21.85C9.84986 22.1 9.85986 22.4 9.93986 22.74L9.92986 22.75Z" fill="#241629"/>
      <path d="M39.8602 20.09C39.6602 19.05 39.2102 18.07 38.7802 17.13C38.7002 16.95 38.6202 16.77 38.5402 16.59C38.3502 16.23 38.2002 15.84 38.0502 15.47C37.8902 15.06 37.7202 14.64 37.5002 14.25C36.6702 12.85 35.9502 11.71 34.9602 10.72C34.9302 10.68 34.8902 10.63 34.8602 10.59C34.7102 10.39 34.5602 10.2 34.3702 10.01C34.2602 9.90004 34.1602 9.79004 34.0602 9.68004C33.8502 9.45004 33.6302 9.21004 33.3802 9.03004C33.1802 8.85004 32.9902 8.67004 32.8002 8.48004C32.5002 8.19004 32.1802 7.88004 31.8402 7.61004C31.6902 7.49004 31.5402 7.38004 31.3902 7.26004C30.5602 6.61004 29.7102 5.94004 28.7202 5.50004C28.5302 5.44004 28.3402 5.36004 28.1502 5.28004C27.9402 5.19004 27.7202 5.10004 27.4902 5.03004C27.4402 5.02004 27.3802 5.01004 27.3302 5.00004C27.2002 4.98004 27.0702 4.95004 26.9402 4.91004C26.0102 4.64004 25.0402 4.51004 24.1002 4.38004C23.6402 4.32004 23.1802 4.25004 22.7202 4.17004C21.1002 3.86004 19.8602 3.73004 18.6902 3.75004C17.0202 3.86004 15.2902 4.31004 13.5302 5.10004C12.3802 5.53004 11.0502 6.08004 9.84016 6.85004C9.23016 7.31004 8.80016 7.70004 8.42016 8.10004C8.17016 8.28004 7.96016 8.51004 7.75016 8.72004C7.68016 8.79004 7.61016 8.87004 7.54016 8.94004C7.28016 9.14004 7.09016 9.35004 6.94016 9.57004C6.52016 10.12 6.23016 10.75 6.00016 11.28C5.94016 11.43 5.87016 11.59 5.80016 11.74C5.57016 12.24 5.34016 12.77 5.27016 13.33C5.22016 13.6 5.22016 13.88 5.21016 14.15C5.21016 14.27 5.21016 14.4 5.21016 14.52C5.20016 14.58 5.21016 14.65 5.21016 14.71C5.18016 14.71 5.15016 14.71 5.13016 14.71C5.12016 14.71 5.10016 14.71 5.08016 14.71C5.00016 14.71 4.74016 14.73 4.55016 14.74C3.80016 14.78 3.17016 15.35 3.05016 16.09C3.02016 16.29 2.99016 16.46 2.99016 16.51C2.99016 16.54 2.99016 16.56 2.98016 16.59C2.97016 16.65 2.96016 16.71 2.95016 16.78C2.95016 16.78 2.92016 17.11 2.90016 17.23C2.84016 17.79 2.78016 18.36 2.75016 18.94C2.75016 19.32 2.73016 19.71 2.72016 20.13C2.69016 20.79 2.67016 21.47 2.69016 22.1C2.69016 22.71 2.68016 23.23 2.66016 23.82V24.2C2.66016 24.2 2.66016 24.23 2.69016 24.81C2.72016 25.27 2.95016 25.66 3.30016 25.91C3.50016 26.05 3.75016 26.15 4.01016 26.17C4.11016 26.17 4.19016 26.19 4.21016 26.19C4.30016 26.19 4.40016 26.21 4.49016 26.21C4.80016 26.24 5.13016 26.27 5.46016 26.32C5.54016 26.32 5.63016 26.33 5.71016 26.34C5.74016 26.46 5.77016 26.59 5.80016 26.71C5.83016 26.84 5.87016 26.98 5.89016 27.12C5.92016 27.83 6.14016 28.56 6.57016 29.35C6.76016 29.74 7.04016 30.08 7.32016 30.4L7.40016 30.49C7.66016 30.86 8.00016 31.17 8.46016 31.44C8.69016 31.57 8.92016 31.73 9.14016 31.87C9.34016 32 9.55016 32.14 9.76016 32.27C10.0002 32.39 10.2502 32.5 10.4902 32.6C10.7202 32.7 10.9502 32.8 11.1802 32.91C12.5902 33.46 13.6302 33.97 14.5602 34.55C14.8002 34.69 15.0402 34.81 15.2502 34.91C14.6502 36.45 14.4802 37.23 14.7202 37.44C14.7902 37.49 14.8602 37.52 14.9402 37.52C15.1802 37.52 15.3702 37.22 15.3802 36.97C15.4302 36.76 15.4802 36.55 15.5502 36.31C15.6402 36.26 15.7402 36.2 15.7902 36.19C16.2202 35.98 16.5802 35.82 16.9302 35.7C17.0002 35.69 17.0502 35.65 17.0902 35.61C17.1802 35.52 17.2102 35.38 17.1702 35.23C17.1302 35.04 16.9902 34.88 16.8202 34.82C16.6102 34.71 16.3802 34.61 16.0802 34.5C15.9502 34.45 15.8102 34.41 15.6802 34.36L15.5402 34.31C15.2702 34.22 15.0402 34.13 14.8302 34.04C13.8902 33.56 12.9402 33.09 11.8102 32.53L11.7702 32.51C11.4002 32.33 11.0202 32.15 10.6702 31.93C10.1302 31.7 9.64016 31.38 9.24016 31.09C9.17016 31.05 9.10016 31 9.03016 30.96C8.67016 30.75 8.29016 30.52 8.05016 30.17C7.97016 30.05 7.88016 29.94 7.79016 29.83C7.67016 29.68 7.54016 29.53 7.44016 29.36C7.29016 29.11 7.17016 28.84 7.05016 28.57C7.01016 28.47 6.96016 28.37 6.92016 28.28C6.82016 28.02 6.79016 27.73 6.75016 27.45C6.72016 27.17 6.68016 26.88 6.58016 26.61C6.58016 26.58 6.56016 26.54 6.55016 26.5C6.55016 26.47 6.53016 26.43 6.52016 26.39L6.77016 26.41C7.04016 26.43 7.30016 26.46 7.56016 26.48C7.60016 26.59 7.62016 26.71 7.64016 26.82C7.67016 26.98 7.70016 27.14 7.77016 27.3C7.82016 27.79 7.91016 28.35 8.18016 28.84C9.04016 30.31 11.3302 31.16 12.5602 31.61C13.2502 31.87 13.8702 32.1 14.5002 32.32C15.0002 32.56 15.5302 32.8 16.1102 32.92C16.3202 32.96 16.5602 32.98 16.8202 32.99C17.0102 33.38 17.3302 33.7 17.6502 34C17.8802 34.28 18.1302 34.61 18.1902 35.01C18.2202 35.29 18.1802 35.57 18.1402 35.85C18.1402 35.9 18.1302 35.95 18.1202 36C18.1102 36.12 18.1002 36.23 18.1002 36.35C18.1002 36.5 18.0802 36.66 18.0602 36.82C18.0602 36.92 18.0402 37.02 18.0202 37.11C17.9902 37.3 17.9602 37.5 17.9702 37.69C17.9702 37.94 18.0102 38.19 18.0402 38.44C18.0402 38.49 18.0502 38.53 18.0602 38.58C18.0702 38.68 18.1702 38.77 18.2702 38.76H18.2802C18.2802 38.76 18.3702 38.74 18.3902 38.7C18.4202 38.66 18.4302 38.61 18.4202 38.56C18.4202 38.49 18.4002 38.42 18.3902 38.36C18.3702 38.23 18.3402 38.09 18.3402 37.96C18.3202 37.69 18.3702 37.44 18.4402 37.17C18.4702 37.05 18.4902 36.92 18.5102 36.8C18.5402 36.64 18.5602 36.47 18.5702 36.31C18.5802 36.18 18.6002 36.04 18.6202 35.9C18.6202 35.84 18.6302 35.79 18.6402 35.73C18.6602 35.51 18.6902 35.29 18.6602 35.07C18.6002 34.54 18.3002 34.09 18.0402 33.77C17.9902 33.71 17.9302 33.65 17.8802 33.6C17.7002 33.42 17.5102 33.24 17.3602 33.02C17.3602 33.02 17.3602 33.01 17.3402 33C17.4602 33 17.5902 33 17.7202 32.98C17.8802 32.98 18.0502 32.97 18.2102 32.96C18.3502 32.96 18.4802 32.96 18.6002 32.96C18.8302 32.94 19.0502 32.93 19.2802 32.91C21.7102 32.73 24.2302 32.55 26.6602 31.95C27.2402 31.73 27.8102 31.46 28.0002 30.91V30.9C28.0002 30.85 28.0202 30.8 28.0402 30.73C28.2702 30.78 28.5302 30.85 28.7902 30.91H28.8402C28.8402 30.91 28.9402 30.94 28.9802 30.95L29.1002 30.98C29.2402 31.01 29.3902 31.02 29.5302 31.02C30.3402 31 31.0402 30.49 31.3202 29.73C31.3702 29.58 31.4102 29.47 31.4302 29.44C31.4302 29.42 31.4502 29.4 31.4602 29.37C31.4602 29.37 31.4802 29.31 31.5002 29.28C31.5102 29.25 31.5202 29.22 31.5402 29.19V29.16C31.6902 28.78 31.8302 28.39 31.9602 28.02C32.2802 27.15 32.6102 26.25 32.8602 25.34C33.0602 24.56 33.7402 22.47 34.0202 21.61C34.3402 20.64 33.8402 19.57 32.8902 19.2C32.4602 19.03 31.7202 18.74 31.6302 18.71L31.5202 18.68C31.7502 17.98 31.9002 17.22 31.9802 16.29C32.3402 14.82 31.7202 13.07 30.9702 12.06L30.9202 11.99C30.6602 11.67 30.3902 11.33 30.0502 11.08C29.8902 10.97 29.7302 10.84 29.5702 10.72C29.3402 10.54 29.1102 10.36 28.8602 10.21C28.6902 10.11 28.5102 10 28.3502 9.89004L28.2402 9.82004C28.1502 9.76004 28.0402 9.69004 27.9302 9.62004L27.8902 9.60004C27.8902 9.60004 27.8002 9.55004 27.7902 9.54004C27.7002 9.49004 27.6202 9.45004 27.5502 9.42004C27.5402 9.42004 27.5202 9.41004 27.5102 9.40004C27.5102 9.40004 27.5102 9.40004 27.5002 9.40004C27.4602 9.38004 27.4202 9.36004 27.3802 9.35004C26.9402 9.11004 26.4802 8.92004 26.0302 8.73004C25.8202 8.65004 25.6102 8.56004 25.4002 8.46004C25.2602 8.41004 25.1002 8.35004 24.9102 8.27004C24.8902 8.27004 24.8702 8.25004 24.8602 8.25004C24.7702 8.21004 24.6702 8.16004 24.5802 8.12004H24.5602C24.2902 7.99004 23.9902 7.85004 23.6602 7.75004C23.6602 7.75004 23.5002 7.70004 23.4302 7.68004C23.3202 7.65004 23.2002 7.61004 23.0902 7.58004C23.0802 7.58004 23.0702 7.58004 23.0602 7.57004C22.9102 7.53004 22.7502 7.49004 22.6002 7.44004C21.9902 7.28004 21.4102 7.15004 20.8502 7.04004C20.7702 7.02004 20.6902 7.01004 20.6002 7.00004C20.5702 7.00004 20.4802 6.98004 20.4802 6.98004C20.4502 6.98004 20.4202 6.98004 20.3802 6.97004C20.3202 6.97004 20.2602 6.95004 20.2002 6.94004H20.1802C20.1802 6.94004 20.1002 6.93004 20.0702 6.92004H20.0602C20.0202 6.92004 19.9802 6.91004 19.9402 6.90004C19.9002 6.90004 19.8602 6.90004 19.8302 6.89004C19.8002 6.89004 19.7702 6.89004 19.7502 6.89004C19.7202 6.89004 19.6902 6.89004 19.6702 6.89004C19.6302 6.89004 19.6002 6.89004 19.5602 6.88004C19.5202 6.88004 19.4902 6.88004 19.4502 6.87004C19.3902 6.87004 19.3302 6.86004 19.2702 6.85004C19.2202 6.85004 19.1702 6.85004 19.1302 6.84004H19.1002C19.1002 6.84004 19.0602 6.83004 19.0402 6.83004C19.0302 6.83004 19.0102 6.83004 19.0002 6.83004H18.9602H18.9302C18.9002 6.83004 18.8702 6.83004 18.8302 6.83004H18.7902C18.7902 6.83004 18.7302 6.83004 18.7002 6.83004C18.6602 6.83004 18.6102 6.83004 18.5702 6.83004H18.4702C18.4702 6.83004 18.3902 6.83004 18.3602 6.83004C18.3002 6.83004 18.2302 6.83004 18.1702 6.83004C18.0802 6.83004 17.9902 6.84004 17.9002 6.85004C17.7902 6.85004 17.6802 6.86004 17.5602 6.87004C17.5602 6.87004 17.4802 6.87004 17.4402 6.87004C17.4002 6.87004 17.3602 6.87004 17.3202 6.87004C17.2802 6.87004 17.2402 6.87004 17.2102 6.87004C17.1802 6.87004 17.1302 6.87004 17.1002 6.87004C17.0302 6.87004 16.9602 6.87004 16.8902 6.87004H16.7802C16.6802 6.87004 16.5802 6.87004 16.4802 6.87004C16.3302 6.87004 16.2102 6.88004 16.0902 6.89004C15.6502 6.92004 15.2202 6.98004 14.8002 7.07004C14.7702 7.07004 14.7402 7.08004 14.7102 7.09004C14.6802 7.09004 14.6502 7.10004 14.6202 7.11004C14.5902 7.12004 14.5602 7.12004 14.5302 7.13004C14.5002 7.13004 14.4402 7.15004 14.4402 7.15004C13.4402 7.39004 12.5902 7.76004 11.9102 8.27004C11.3402 8.72004 10.8802 9.28004 10.4302 9.83004L10.3902 9.88004C9.97016 10.47 9.66016 11.06 9.45016 11.66C9.40016 11.88 9.33016 12.1 9.26016 12.3C9.16016 12.62 9.05016 12.95 9.00016 13.29C8.82016 13.75 8.70016 14.23 8.64016 14.69H8.52016C8.39016 14.69 8.26016 14.71 8.12016 14.71H7.95016C7.95016 14.71 7.97016 14.64 7.98016 14.61C8.17016 13.91 8.44016 13 8.88016 12.13C8.93016 12.04 8.92016 11.94 8.87016 11.85C8.82016 11.78 8.75016 11.73 8.68016 11.73C8.64016 11.73 8.56016 11.75 8.50016 11.86C8.43016 12.01 8.37016 12.16 8.30016 12.31C8.09016 12.78 7.87016 13.26 7.74016 13.77C7.71016 13.86 7.68016 13.95 7.66016 14.04C7.59016 14.26 7.52016 14.48 7.47016 14.71C7.35016 14.71 7.23016 14.71 7.10016 14.71C6.80016 14.71 6.50016 14.71 6.20016 14.71C6.20016 14.63 6.20016 14.54 6.21016 14.45C6.21016 14.28 6.23016 14.1 6.24016 13.92C6.29016 13.4 6.47016 12.9 6.63016 12.42C6.68016 12.27 6.74016 12.11 6.79016 11.96C7.00016 11.25 7.26016 10.44 7.70016 9.74004C7.84016 9.59004 7.97016 9.43004 8.09016 9.27004C8.24016 9.08004 8.39016 8.88004 8.57016 8.72004C8.71016 8.60004 8.84016 8.47004 8.96016 8.35004C9.21016 8.10004 9.44016 7.87004 9.73016 7.70004C10.1702 7.36004 10.7102 7.16004 11.2202 6.98004C11.3202 6.95004 11.4202 6.91004 11.5202 6.87004C12.1002 6.64004 12.7102 6.45004 13.3002 6.27004C13.9102 6.08004 14.5402 5.88004 15.1402 5.64004C16.1402 5.28004 17.2402 4.96004 18.4902 4.68004C19.1502 4.62004 19.7002 4.59004 20.2102 4.57004C20.6702 4.56004 21.0902 4.57004 21.4902 4.58004C23.0202 4.67004 24.6502 5.04004 26.6202 5.75004C26.8202 5.86004 27.0302 5.92004 27.2302 5.99004C27.3402 6.02004 27.4502 6.06004 27.5602 6.10004C27.6202 6.13004 27.6702 6.16004 27.7202 6.19004C27.8302 6.25004 27.9602 6.32004 28.0902 6.37004C28.9402 6.70004 29.7202 7.20004 30.4202 7.65004C30.9702 7.99004 31.5102 8.33004 32.0402 8.75004C32.2302 8.92004 32.4202 9.11004 32.5902 9.29004C32.7702 9.48004 32.9602 9.68004 33.1602 9.85004C33.4302 10.14 33.6702 10.46 33.9002 10.77C34.1702 11.13 34.4502 11.5 34.7702 11.82C35.4902 12.7 36.3202 13.73 37.0702 14.77C37.9102 16.31 38.5102 17.7 38.8902 19L38.9202 19.09C39.0902 19.74 39.2802 20.42 39.1002 21.07V21.08C39.0702 21.36 38.9602 21.63 38.7502 21.97C38.7402 22 38.7202 22.02 38.7102 22.05C38.6302 22.21 38.5502 22.36 38.4202 22.47C37.9002 22.9 37.3202 23.22 36.7102 23.53L36.7602 23.4C36.8102 23.27 36.8502 23.14 36.8902 23.01C36.9502 22.83 37.0102 22.65 37.0602 22.48C37.1002 22.34 37.1402 22.19 37.1902 22.06C37.2402 21.95 37.2202 21.81 37.1502 21.7C37.0902 21.61 36.9902 21.55 36.9002 21.56C36.8502 21.56 36.8002 21.58 36.7502 21.6C36.5702 21.72 36.5102 21.9 36.4502 22.08C36.4302 22.13 36.4202 22.18 36.4002 22.23C36.1702 22.88 35.9602 23.48 35.7402 24.06C35.7002 24.15 35.6702 24.24 35.6402 24.33C35.6002 24.42 35.5702 24.51 35.5402 24.6C35.5002 24.69 35.4702 24.78 35.4302 24.87C35.3902 24.96 35.3602 25.04 35.3302 25.13C35.2602 25.31 35.1902 25.48 35.1102 25.66C34.7302 26.59 34.2902 27.51 33.8702 28.37C33.1402 29.88 32.3702 31.31 31.0302 32.15C29.9802 32.86 28.8502 33.4 27.7002 33.77C26.9702 33.94 26.2402 34.16 25.5302 34.37C25.3002 34.44 25.0702 34.5 24.8502 34.57C24.2902 34.7 23.7202 34.83 23.1702 34.97L23.0102 35.01C22.8502 35.05 22.6802 35.09 22.5202 35.13C22.4102 35.16 22.3002 35.18 22.2002 35.21C22.1002 35.23 22.0002 35.25 21.9002 35.27C21.7102 35.31 21.5102 35.35 21.3202 35.41C21.1402 35.48 21.0002 35.68 21.0002 35.9C21.0002 36.07 21.0702 36.21 21.2202 36.29C21.2602 36.3 21.2902 36.31 21.3302 36.31C21.3902 36.31 21.4502 36.29 21.5102 36.26C21.5802 36.23 21.6702 36.21 21.7402 36.19C21.8202 36.17 21.8902 36.15 21.9602 36.12H22.0102C22.2402 36.05 22.4702 35.99 22.7002 35.93C22.7402 36.06 22.7802 36.19 22.8302 36.32C22.9502 36.62 23.0402 36.93 23.1302 37.24C23.1802 37.4 23.2202 37.55 23.2702 37.71C23.3102 37.84 23.3702 37.96 23.4302 38.08C23.5002 38.22 23.5702 38.37 23.6102 38.53C23.6402 38.64 23.7402 38.73 23.8602 38.75C23.8802 38.75 23.8902 38.75 23.9202 38.75C24.0402 38.75 24.1602 38.68 24.2402 38.57C24.3402 38.44 24.3702 38.27 24.3402 38.13C24.2702 37.93 24.1802 37.72 24.0802 37.5C23.9902 37.3 23.9302 37.07 23.8702 36.86C23.8302 36.7 23.7902 36.54 23.7302 36.39C23.6502 36.19 23.5902 35.99 23.5202 35.8C25.0802 35.57 26.8502 35.25 28.4602 34.53C29.2802 34.07 30.0102 33.64 30.6702 33.13C31.5102 32.55 32.2502 32.01 32.8402 31.3C33.4702 30.58 34.0202 29.74 34.4702 28.78C35.1302 27.43 35.7002 26.21 36.2002 25.04C36.2202 24.98 36.2502 24.92 36.2702 24.87C37.0502 24.5 37.9502 24.05 38.7402 23.46C39.0502 23.25 39.3002 22.93 39.4902 22.5C39.8802 21.85 40.0502 20.94 39.9202 20.18L39.8602 20.09ZM27.1202 30.86C27.0802 30.93 27.0002 30.98 26.9202 31.03C26.8902 31.05 26.8502 31.07 26.8202 31.09C26.3502 31.32 25.8202 31.41 25.3102 31.5C25.0602 31.54 24.8002 31.59 24.5602 31.65C23.6602 31.83 22.7302 31.92 21.8302 32.02C21.3402 32.07 20.8302 32.12 20.3402 32.19C20.0802 32.22 19.8102 32.26 19.5602 32.3C19.0302 32.38 18.4802 32.46 17.9402 32.48H17.9102C17.7902 32.48 17.6602 32.49 17.5302 32.5C17.4002 32.5 17.2802 32.52 17.1502 32.52C16.8602 32.52 16.5102 32.52 16.1802 32.4C15.8002 32.27 15.4502 32.06 15.1102 31.86C14.8202 31.68 14.5202 31.51 14.2002 31.38C13.6402 31.06 13.0402 30.81 12.4502 30.57C12.0402 30.4 11.6102 30.23 11.1902 30.03L11.0402 29.96C10.0502 29.53 8.93016 29.04 8.73016 27.92C8.72016 27.66 8.69016 27.39 8.67016 27.14C8.65016 26.97 8.63016 26.8 8.62016 26.62C8.75016 26.62 8.89016 26.64 9.02016 26.64C9.63016 26.64 10.2502 26.66 10.8602 26.68C11.6202 26.7 12.4002 26.73 13.1702 26.71C13.3002 26.71 13.4402 26.71 13.5902 26.71C13.8502 26.71 14.1202 26.68 14.4602 26.65C14.4602 26.65 14.6602 26.63 14.6802 26.63C14.5902 26.69 14.5102 26.75 14.4202 26.81C14.2402 26.96 14.0402 27.08 13.8402 27.2C13.6602 27.31 13.4702 27.42 13.3002 27.55V27.56C13.1602 27.77 13.1302 27.97 13.2102 28.15C13.3902 28.6 14.1702 28.83 14.7902 28.97C14.6002 29.26 14.5402 29.49 14.6102 29.67C14.7302 29.98 15.1702 30.08 15.6402 30.19C15.7002 30.21 15.7702 30.22 15.8302 30.23C15.8502 30.23 15.8702 30.23 15.8902 30.23C16.0602 30.23 16.1902 30.04 16.2002 29.87C16.2402 29.49 15.9302 29.41 15.6702 29.34C15.6102 29.32 15.5502 29.31 15.4902 29.29C15.7202 28.99 15.8002 28.76 15.7302 28.57C15.6402 28.29 15.2602 28.2 14.8502 28.1C14.6602 28.05 14.4502 28 14.2902 27.94C15.1602 27.38 15.6502 26.94 16.4402 26.17C16.6502 26 16.7502 25.34 16.9002 24.28C16.9502 23.92 17.0002 23.54 17.0602 23.24C17.7802 23.35 18.1102 23.51 18.6302 23.79C18.7702 23.86 18.9202 23.94 19.0902 24.02C19.0402 24.22 19.0002 24.51 18.9402 24.85C18.8702 25.33 18.7802 25.87 18.6602 26.31C18.6602 26.31 18.6302 26.4534 18.5702 26.74C18.4102 27.51 18.8102 28.29 19.5302 28.6C19.6002 28.63 19.6102 28.63 19.6102 28.64C19.7802 28.68 19.9402 28.72 20.1102 28.76C20.8702 28.95 21.4502 29.1 22.0002 29.26C23.2402 29.63 24.5202 30.01 25.8302 30.22C26.3002 30.32 26.7802 30.43 27.2202 30.54C27.2002 30.62 27.1802 30.73 27.1402 30.83L27.1202 30.86ZM31.4702 21.8C31.3102 22.51 31.1202 23.22 30.9102 23.9C30.5902 25.16 30.1702 26.46 29.6402 27.76C29.6102 27.86 29.5702 27.97 29.5302 28.08C29.4502 28.34 29.2102 28.53 28.9302 28.53C28.8702 28.53 28.8202 28.53 28.7602 28.51L28.5202 28.45C27.4902 28.21 26.4302 27.96 25.3702 27.77L24.8802 27.68C23.6802 27.45 22.4402 27.22 21.2402 26.93C21.0602 26.89 20.9002 26.77 20.8102 26.61C20.7202 26.45 20.6902 26.26 20.7402 26.08C20.8302 25.76 20.9202 25.44 21.0002 25.11C21.5302 23.17 22.0702 21.17 22.8202 19.27C22.9302 18.98 23.2102 18.78 23.5302 18.77C23.6002 18.77 23.6602 18.77 23.7302 18.79H23.7602C24.6302 18.99 25.4902 19.25 26.3302 19.51C27.0102 19.72 27.7102 19.93 28.4102 20.11C29.3502 20.38 30.2602 20.71 31.0302 21C31.3602 21.12 31.5402 21.46 31.4602 21.8H31.4702ZM25.9302 9.41004C26.1702 9.48004 26.4602 9.57004 26.7502 9.67004C26.5002 9.79004 26.2602 9.91004 26.0202 10.03C25.9102 10.09 25.8002 10.14 25.7002 10.19C25.1602 10.45 24.5902 10.73 24.0502 11.07C23.9402 11.13 23.8202 11.2 23.7102 11.25C23.6702 11.27 23.6302 11.29 23.5902 11.31C24.0002 10.91 24.4602 10.56 24.9102 10.21C25.2102 9.98004 25.5302 9.73004 25.8202 9.48004C25.8602 9.46004 25.9002 9.43004 25.9302 9.39004V9.41004ZM24.1202 9.26004C24.2502 9.19004 24.3902 9.11004 24.5602 9.02004C24.7302 9.08004 24.9302 9.13004 25.1602 9.20004L25.3602 9.26004C25.2702 9.33004 25.1802 9.40004 25.1002 9.46004C24.4402 9.97004 23.7602 10.49 23.1702 11.11C23.1302 11.16 23.0502 11.24 22.9502 11.33C22.7502 11.52 22.4902 11.77 22.4002 11.95C22.3802 11.95 22.3702 11.95 22.3502 11.95C22.3302 11.95 22.3102 11.95 22.2902 11.96C22.2702 11.96 22.2502 11.96 22.2202 11.96C22.2202 11.96 22.1602 11.96 22.1502 11.96C22.0702 11.65 22.1502 11.33 22.2402 11.02C22.2702 10.91 22.3002 10.79 22.3302 10.68C22.3502 10.58 22.3702 10.48 22.3902 10.38C22.9902 9.98004 23.6002 9.58004 24.1302 9.24004L24.1202 9.26004ZM23.0202 8.57004C23.1502 8.61004 23.2802 8.64004 23.4102 8.68004C23.2502 8.79004 23.0902 8.90004 22.9302 9.00004L22.6602 9.18004C22.4502 9.32004 22.2502 9.46004 22.0402 9.60004L22.0102 9.62004C21.7402 9.82004 21.4502 10.01 21.1702 10.2C20.7702 10.46 20.3602 10.73 19.9902 11.05C19.8802 11.14 19.7702 11.24 19.6602 11.33C19.2402 11.69 18.8002 12.07 18.3802 12.45C18.6502 12.08 18.9702 11.74 19.2902 11.42C19.3702 11.34 19.4502 11.26 19.5202 11.18C19.6502 11.04 19.7602 10.89 19.8702 10.73C20.0302 10.54 20.2002 10.35 20.3602 10.16C20.4202 10.09 20.4802 10.03 20.5402 9.96004L20.6802 9.82004C21.1702 9.30004 21.6702 8.77004 22.2402 8.35004L23.0202 8.57004ZM20.1602 8.40004C20.2502 8.32004 20.3202 8.23004 20.4002 8.15004C20.4402 8.11004 20.4802 8.07004 20.5202 8.03004C20.5502 8.00004 20.5802 7.97004 20.6102 7.94004C20.9202 8.02004 21.2502 8.10004 21.6302 8.20004C21.1702 8.57004 20.7802 9.02004 20.3902 9.45004L20.3102 9.54004C20.1902 9.67004 20.0802 9.80004 19.9702 9.92004C19.8702 10.04 19.7602 10.16 19.6502 10.29C19.5602 10.4 19.4802 10.51 19.4002 10.62C19.2902 10.77 19.1802 10.92 19.0502 11.06C18.6002 11.56 18.1902 12.1 17.8302 12.65L17.7802 12.72C17.6802 12.87 17.5802 13.02 17.4902 13.18C17.4902 13.18 17.4602 13.22 17.4602 13.23C17.4602 13.23 17.4602 13.22 17.4502 13.21H17.4402C17.4402 13.21 17.4402 13.2 17.4302 13.19C17.4002 13.16 17.3402 13.06 17.3502 12.78C17.3502 12.72 17.3502 12.66 17.3502 12.6V12.56C17.3502 12.56 17.3702 12.52 17.3702 12.5C17.4902 12.18 17.6702 11.85 17.9102 11.49C18.1302 11.12 18.3802 10.75 18.6102 10.4C18.6802 10.29 18.7502 10.19 18.8202 10.08C19.1602 9.45004 19.6602 8.92004 20.1402 8.41004L20.1602 8.40004ZM18.0002 9.07004C18.0602 8.93004 18.1202 8.79004 18.1802 8.64004C18.2902 8.27004 18.4602 7.93004 18.6602 7.57004C18.6702 7.57004 18.6902 7.57004 18.7002 7.57004C18.7202 7.57004 18.7502 7.57004 18.7702 7.57004H18.8402C18.9402 7.57004 19.0402 7.59004 19.1502 7.60004C19.1602 7.60004 19.1802 7.60004 19.2002 7.60004H19.2602C19.4302 7.64004 19.6002 7.67004 19.8202 7.72004C19.8902 7.74004 19.9602 7.75004 20.0402 7.77004H20.0602C19.6802 8.16004 19.3002 8.58004 18.9502 9.04004C18.8002 9.24004 18.6802 9.45004 18.5602 9.65004C18.4702 9.81004 18.3502 9.99004 18.2302 10.16C18.1702 10.24 18.1202 10.32 18.0602 10.4C17.8502 10.74 17.6502 11.11 17.4602 11.48V11.51C17.4902 11.09 17.5402 10.66 17.6102 10.19C17.6602 9.78004 17.8202 9.40004 17.9902 9.04004L18.0002 9.07004ZM16.2902 8.35004C16.3302 8.28004 16.4102 8.19004 16.5002 8.10004C16.5902 8.00004 16.6802 7.89004 16.7602 7.78004C17.0202 7.74004 17.3002 7.70004 17.6202 7.66004C17.6002 7.72004 17.5802 7.78004 17.5602 7.84004C17.4802 7.91004 17.4002 7.97004 17.3202 8.04004C17.1802 8.16004 17.0302 8.28004 16.8902 8.39004C16.6802 8.55004 16.4702 8.71004 16.2502 8.87004C16.0502 9.02004 15.8502 9.18004 15.6402 9.33004C15.7102 9.22004 15.7802 9.11004 15.8502 9.00004C15.9802 8.79004 16.1302 8.56004 16.2802 8.34004L16.2902 8.35004ZM14.6402 8.24004C15.0802 8.11004 15.5302 8.01004 16.0302 7.91004C15.8402 8.15004 15.6802 8.41004 15.5302 8.66004C15.4902 8.73004 15.4402 8.80004 15.4002 8.87004C15.2302 9.09004 15.1102 9.34004 15.0002 9.58004C14.9602 9.65004 14.9302 9.72004 14.9002 9.79004C14.8802 9.83004 14.8602 9.87004 14.8302 9.92004C14.8302 9.92004 14.7502 9.99004 14.7102 10.02C14.7102 9.97004 14.7002 9.93004 14.6902 9.88004C14.6902 9.87004 14.6902 9.82004 14.6902 9.82004C14.6102 9.22004 14.6102 8.70004 14.6702 8.23004L14.6402 8.24004ZM9.48016 13.62V13.61C9.59016 12.75 9.75016 12.07 9.99016 11.48C10.2102 11.09 10.4502 10.68 10.7602 10.35C10.9502 10.21 11.1102 10.04 11.2702 9.87004L11.2902 9.85004C11.3602 9.80004 11.4302 9.75004 11.4902 9.70004C11.6102 9.62004 11.7402 9.52004 11.8402 9.42004C12.4602 8.92004 13.2302 8.65004 13.9702 8.43004C13.9002 8.87004 13.9002 9.31004 13.9402 9.75004C13.9402 9.80004 13.9402 9.85004 13.9502 9.91004C13.9802 10.32 14.0402 10.93 14.6002 10.92C14.8202 10.92 14.9902 10.78 15.1602 10.65C15.2502 10.58 15.3302 10.52 15.4302 10.47C15.6802 10.32 15.9202 10.14 16.1502 9.97004C16.2802 9.87004 16.4102 9.77004 16.5502 9.68004C16.7302 9.56004 16.9102 9.44004 17.1102 9.29004C17.0002 9.83004 16.9802 10.38 16.9602 10.92C16.9602 11.2 16.9402 11.49 16.9102 11.78V11.79C16.9102 11.96 16.9002 12.14 16.8802 12.34C16.8202 12.9 16.7502 13.54 17.3202 13.86C17.3702 13.88 17.4402 13.9 17.5202 13.9C17.7302 13.9 17.9702 13.8 18.0902 13.71C18.3002 13.5 18.5302 13.3 18.7502 13.11L18.7902 13.07C19.3602 12.65 19.8902 12.19 20.3802 11.76C20.7502 11.45 21.1602 11.19 21.5702 10.94C21.5702 10.94 21.5902 10.94 21.5902 10.92C21.5102 11.16 21.4402 11.41 21.4202 11.66C21.4002 11.93 21.3802 12.8 22.0002 12.88H22.0102C22.2702 12.88 22.5102 12.81 22.7602 12.75L22.8602 12.72C23.0602 12.63 23.2402 12.51 23.4202 12.39C23.6202 12.26 23.8202 12.12 24.0402 12.04C24.6702 11.68 25.3402 11.36 25.9802 11.05C26.4202 10.84 26.8802 10.62 27.3202 10.39C27.4402 10.31 27.6002 10.25 27.7702 10.19C27.9402 10.29 28.0902 10.41 28.2302 10.51C28.6402 10.76 29.0002 11.04 29.3502 11.37C30.1202 11.99 30.7202 12.85 31.0202 13.78C31.1802 14.29 31.2502 14.87 31.2402 15.49C31.2202 15.56 31.2102 15.63 31.1902 15.7C31.1302 15.98 31.0602 16.26 31.0502 16.55C31.0002 17.06 30.8602 17.56 30.7302 18.05C30.6902 18.18 30.6602 18.31 30.6202 18.44C29.9402 18.24 29.3102 18.07 28.7002 17.9C28.3802 17.82 28.0402 17.71 27.7202 17.6C27.2402 17.44 26.7402 17.28 26.2302 17.2C25.9502 17.15 25.6702 17.08 25.3902 17.03C25.0902 16.97 24.7802 16.9 24.4802 16.84C24.3602 16.81 23.8402 16.69 23.2902 16.56L22.6702 16.41C22.5602 16.38 22.4402 16.37 22.3202 16.37C21.7702 16.39 21.2902 16.73 21.1002 17.24C21.0002 17.51 20.9002 17.9 20.8302 18.16C20.8002 18.26 20.7802 18.35 20.7702 18.37C20.7002 18.56 20.6502 18.75 20.5902 18.93C20.5402 19.11 20.4902 19.29 20.4202 19.47C20.3802 19.61 20.2202 20.06 20.0502 20.54C19.8902 20.99 19.7302 21.45 19.6702 21.66C19.0002 21.4 18.6202 21.34 18.1202 21.26C17.9102 21.23 17.6702 21.19 17.3802 21.13C17.4102 20.87 17.4302 20.31 17.4502 19.72C17.4802 19.05 17.5002 18.36 17.5402 18.13C17.5402 18.02 17.5402 17.49 17.5402 16.56C17.5402 15.61 16.7902 14.8 15.8402 14.72C14.9102 14.65 13.7102 14.56 13.3002 14.55C13.0002 14.55 12.7002 14.54 12.4102 14.53C11.9702 14.52 11.5202 14.5 11.0702 14.51C10.9802 14.51 10.8902 14.51 10.8002 14.51C10.4202 14.52 10.0302 14.55 9.65016 14.57H9.49016C9.49016 14.57 9.31016 14.59 9.27016 14.59C9.31016 14.23 9.36016 13.92 9.44016 13.63L9.48016 13.62ZM6.74016 16.67C7.84016 16.67 8.95016 16.74 10.0302 16.82C10.2702 16.84 10.5102 16.85 10.7502 16.87C11.8802 16.91 14.1302 17.05 15.0402 17.12C15.2502 17.13 15.4002 17.32 15.3902 17.52C15.3602 17.95 15.3302 18.51 15.3102 19C15.3002 19.22 15.2802 19.43 15.2702 19.65C15.2402 20.22 15.2002 20.81 15.1202 21.38C14.9702 21.91 14.8802 23.07 14.8202 23.84C14.7902 24.21 14.4902 24.49 14.1202 24.5C13.4402 24.51 12.5602 24.53 12.0202 24.55C11.7202 24.55 11.4802 24.56 11.3402 24.57C10.9902 24.57 10.6402 24.57 10.3102 24.57C10.0002 24.57 9.68016 24.58 9.35016 24.57C8.50016 24.54 7.13016 24.49 6.03016 24.46C5.58016 24.45 5.19016 24.43 4.91016 24.43C4.82016 24.43 4.73016 24.39 4.67016 24.32C4.61016 24.25 4.58016 24.16 4.58016 24.07C4.61016 23.45 4.66016 22.79 4.74016 22.05C4.80016 21.44 4.79016 20.82 4.78016 20.22C4.78016 19.75 4.77016 19.26 4.79016 18.78C4.82016 18.48 4.82016 18.18 4.83016 17.89C4.83016 17.64 4.83016 17.38 4.86016 17.12C4.88016 16.93 5.03016 16.78 5.23016 16.76C5.42016 16.75 5.63016 16.73 5.84016 16.72C6.15016 16.69 6.47016 16.67 6.76016 16.65L6.74016 16.67Z" fill="#241629"/>
    </g>
    <defs>
      <clipPath id="ferka_logo_clip">
        <rect width="42.54" height="42.54" fill="white"/>
      </clipPath>
    </defs>
  </svg>
